<?xml version="1.0" standalone="no"?>
<!DOCTYPE svg PUBLIC "-//W3C//DTD SVG 20010904//EN"
 "http://www.w3.org/TR/2001/REC-SVG-20010904/DTD/svg10.dtd">
<svg version="1.0" xmlns="http://www.w3.org/2000/svg"
 width="398.000000pt" height="136.000000pt" viewBox="0 0 398.000000 136.000000"
 preserveAspectRatio="xMidYMid meet">

<g transform="translate(0.000000,136.000000) scale(0.100000,-0.100000)"
fill="#000000" stroke="none">
<path d="M2800 1220 l0 -80 368 -2 367 -3 3 -367 2 -368 73 0 72 0 -3 442 c-2
244 -6 445 -9 448 -2 3 -200 6 -439 8 l-434 3 0 -81z"/>
<path d="M2942 1008 c-21 -21 -14 -57 14 -70 31 -14 57 -1 62 31 7 42 -46 69
-76 39z"/>
<path d="M2220 987 c-16 -8 -28 -26 -34 -50 -7 -26 -15 -37 -28 -37 -13 0 -18
-8 -18 -30 0 -23 4 -30 20 -30 18 0 20 -7 20 -85 l0 -85 40 0 40 0 0 85 0 85
30 0 c27 0 30 3 30 30 0 27 -3 30 -31 30 -24 0 -30 4 -27 18 2 10 14 18 31 20
23 3 27 8 27 33 0 27 -3 29 -37 29 -21 0 -49 -6 -63 -13z"/>
<path d="M2410 830 l0 -160 40 0 40 0 0 160 0 160 -40 0 -40 0 0 -160z"/>
<path d="M3290 942 l0 -49 -54 5 c-48 4 -56 1 -87 -26 -31 -28 -34 -35 -34
-87 0 -51 3 -59 33 -86 35 -32 94 -39 135 -18 16 9 22 9 25 0 2 -6 17 -11 33
-11 l29 0 0 160 0 160 -40 0 -40 0 0 -48z m-16 -115 c38 -28 13 -97 -35 -97
-47 0 -65 67 -27 94 27 19 39 20 62 3z"/>
<path d="M603 969 c-34 -10 -63 -51 -63 -88 0 -33 42 -70 100 -89 43 -13 55
-22 55 -37 0 -29 -50 -33 -67 -6 -18 29 -88 30 -88 2 0 -11 10 -32 23 -47 19
-22 34 -28 80 -32 67 -5 110 10 126 44 28 63 -4 115 -83 135 -48 12 -72 31
-61 49 10 16 62 12 69 -5 8 -23 76 -20 76 3 0 30 -29 61 -68 72 -43 12 -56 11
-99 -1z"/>
<path d="M870 826 c0 -83 14 -132 40 -146 24 -13 86 -13 110 0 13 7 21 7 25 0
8 -13 55 -13 56 0 1 6 2 17 2 25 0 8 -1 56 -2 105 l-1 90 -35 0 -35 0 0 -57
c0 -75 -8 -101 -32 -108 -35 -12 -48 12 -48 91 l0 74 -40 0 -40 0 0 -74z"/>
<path d="M1220 744 l0 -155 38 3 c36 3 37 4 37 44 l-1 42 56 -5 c46 -4 59 -2
82 16 58 46 58 146 1 191 -28 22 -91 27 -125 9 -14 -8 -23 -8 -31 0 -6 6 -21
11 -34 11 l-23 0 0 -156z m158 80 c26 -18 28 -50 5 -76 -22 -25 -59 -23 -77 4
-21 30 -20 44 4 68 24 24 38 25 68 4z"/>
<path d="M1594 866 c-29 -29 -34 -41 -34 -81 0 -40 5 -52 34 -81 31 -31 40
-34 91 -34 51 0 60 3 88 33 l32 32 -33 3 c-19 2 -46 -1 -60 -6 -32 -11 -72 1
-72 23 0 12 15 15 85 15 94 0 97 2 71 65 -18 42 -61 65 -122 65 -39 0 -51 -5
-80 -34z m134 -44 c2 -8 -12 -12 -42 -12 -49 0 -61 15 -23 29 25 9 59 0 65
-17z"/>
<path d="M1902 788 l3 -113 38 -3 37 -3 0 60 c0 66 21 101 60 101 16 0 20 7
20 35 0 40 -16 45 -63 20 -24 -12 -29 -12 -34 0 -3 9 -18 15 -34 15 l-30 0 3
-112z"/>
<path d="M2590 826 c0 -81 11 -122 38 -142 20 -16 86 -18 112 -4 13 7 21 7 25
0 8 -13 55 -13 56 0 1 6 2 17 2 25 0 8 -1 56 -2 105 l-1 90 -35 0 -35 0 0 -59
c0 -72 -13 -111 -38 -111 -33 0 -42 21 -42 97 l0 73 -40 0 -40 0 0 -74z"/>
<path d="M2940 784 l0 -115 38 3 c28 2 37 7 36 21 -1 9 -2 60 -3 112 l-1 95
-35 0 -35 0 0 -116z"/>
<path d="M1389 561 c-71 -23 -109 -76 -109 -153 0 -52 27 -101 72 -128 45 -27
131 -27 176 0 92 56 97 197 9 257 -37 25 -108 37 -148 24z m98 -86 c72 -50 6
-169 -76 -135 -77 32 -54 150 29 150 14 0 35 -7 47 -15z"/>
<path d="M530 410 l0 -150 -80 0 -80 0 0 -85 0 -85 90 0 90 0 0 84 0 83 83 5
c59 3 94 10 118 24 67 39 90 140 46 205 -35 53 -78 69 -179 69 l-88 0 0 -150z
m181 51 c34 -35 36 -59 8 -95 -16 -20 -29 -26 -60 -26 l-39 0 0 75 0 75 31 0
c20 0 40 -10 60 -29z"/>
<path d="M1007 553 c-3 -5 -23 -56 -45 -113 -22 -58 -48 -122 -56 -142 l-16
-38 45 0 c39 0 47 3 55 25 8 22 15 25 60 25 44 0 52 -3 62 -25 9 -21 18 -25
54 -25 l43 0 -23 63 c-13 34 -39 100 -58 147 l-34 85 -41 3 c-23 2 -43 -1 -46
-5z m62 -134 c16 -47 14 -54 -19 -54 -33 -1 -35 4 -18 52 15 41 23 42 37 2z"/>
</g>
</svg>
